<svg version="1.1" xmlns="http://www.w3.org/2000/svg" xmlns:xlink="http://www.w3.org/1999/xlink" width="800px" height="800px" viewBox="0,0,256,256"><g fill="#ffffff" fill-rule="nonzero" stroke="none" stroke-width="1" stroke-linecap="butt" stroke-linejoin="miter" stroke-miterlimit="10" stroke-dasharray="" stroke-dashoffset="0" font-family="none" font-weight="none" font-size="none" text-anchor="none" style="mix-blend-mode: normal"><g transform="scale(0.52277,0.52277)"><g><g><path d="M52.7,134.75c29.1,0 52.7,-23.7 52.7,-52.7c0,-29 -23.6,-52.8 -52.7,-52.8c-29.1,0 -52.7,23.7 -52.7,52.7c0,29 23.7,52.8 52.7,52.8zM52.7,53.75c15.6,0 28.2,12.7 28.2,28.2c0,15.5 -12.7,28.2 -28.2,28.2c-15.5,0 -28.2,-12.7 -28.2,-28.2c0,-15.5 12.7,-28.2 28.2,-28.2z"></path><path d="M52.7,297.55c29.1,0 52.7,-23.7 52.7,-52.7c0,-29 -23.6,-52.7 -52.7,-52.7c-29.1,0 -52.7,23.6 -52.7,52.7c0,29.1 23.7,52.7 52.7,52.7zM52.7,216.65c15.6,0 28.2,12.7 28.2,28.2c0,15.5 -12.7,28.2 -28.2,28.2c-15.5,0 -28.2,-12.6 -28.2,-28.2c0,-15.6 12.7,-28.2 28.2,-28.2z"></path><path d="M52.7,460.45c29.1,0 52.7,-23.7 52.7,-52.7c0,-29.1 -23.7,-52.7 -52.7,-52.7c-29,0 -52.7,23.7 -52.7,52.7c0,29 23.7,52.7 52.7,52.7zM52.7,379.45c15.6,0 28.2,12.7 28.2,28.2c0,15.6 -12.7,28.2 -28.2,28.2c-15.5,0 -28.2,-12.7 -28.2,-28.2c0,-15.5 12.7,-28.2 28.2,-28.2z"></path><path d="M175.9,94.25h301.5c6.8,0 12.3,-5.5 12.3,-12.3c0,-6.8 -5.5,-12.3 -12.3,-12.3h-301.5c-6.8,0 -12.3,5.5 -12.3,12.3c0,6.8 5.5,12.3 12.3,12.3z"></path><path d="M175.9,257.15h301.5c6.8,0 12.3,-5.5 12.3,-12.3c0,-6.8 -5.5,-12.3 -12.3,-12.3h-301.5c-6.8,0 -12.3,5.5 -12.3,12.3c0,6.8 5.5,12.3 12.3,12.3z"></path><path d="M175.9,419.95h301.5c6.8,0 12.3,-5.5 12.3,-12.3c0,-6.8 -5.5,-12.3 -12.3,-12.3h-301.5c-6.8,0 -12.3,5.5 -12.3,12.3c0,6.8 5.5,12.3 12.3,12.3z"></path></g></g></g></g></svg>