<svg version="1.1" xmlns="http://www.w3.org/2000/svg" xmlns:xlink="http://www.w3.org/1999/xlink" width="800px" height="800px" viewBox="0,0,256,256"><g fill="#ffffff" fill-rule="evenodd" stroke="none" stroke-width="1" stroke-linecap="butt" stroke-linejoin="miter" stroke-miterlimit="10" stroke-dasharray="" stroke-dashoffset="0" font-family="none" font-weight="none" font-size="none" text-anchor="none" style="mix-blend-mode: normal"><g transform="translate(27.984,0) scale(8,8)"><g id="Page-1"><g transform="translate(-156,-309)" id="Icon-Set-Filled"><path d="M169,335c-1.939,0 -3.764,-0.638 -5.284,-1.682l-1.406,1.424c1.634,1.211 3.582,2.023 5.69,2.213v2.045h-1c-0.552,0 -1,0.448 -1,1c0,0.553 0.448,1 1,1h4c0.552,0 1,-0.447 1,-1c0,-0.552 -0.448,-1 -1,-1h-1v-2.045c4.938,-0.445 9.117,-4.156 10,-8.955h-2c-0.911,4.007 -4.718,7 -9,7zM176,326v-5.261l-11.265,10.776c1.183,0.917 2.651,1.485 4.265,1.485c3.866,0 7,-3.134 7,-7zM160.047,328.145l-0.047,-0.145h-2c0.109,0.596 0.271,1.175 0.478,1.733l1.569,-1.588zM179.577,312.013l-23.587,22.584l1.428,1.408l23.596,-22.572l-1.437,-1.42zM169,309c-3.866,0 -7,3.134 -7,7l-0.003,10.309l13.492,-12.908c-1.033,-2.576 -3.543,-4.401 -6.489,-4.401z" id="microphone-off"></path></g></g></g></g></svg>