<svg version="1.1" xmlns="http://www.w3.org/2000/svg" xmlns:xlink="http://www.w3.org/1999/xlink" width="800px" height="800px" viewBox="0,0,256,256"><g fill="#ffffff" fill-rule="nonzero" stroke="none" stroke-width="1" stroke-linecap="butt" stroke-linejoin="miter" stroke-miterlimit="10" stroke-dasharray="" stroke-dashoffset="0" font-family="none" font-weight="none" font-size="none" text-anchor="none" style="mix-blend-mode: normal"><g transform="translate(20,0.00044) scale(10.66667,10.66667)"><path d="M12.1657,2.14424c0.7071,0.35597 0.8343,1.1289 0.8343,1.60036v16.5115c0,0.4725 -0.1283,1.2437 -0.8344,1.5993c-0.7496,0.3777 -1.4481,-0.0473 -1.8033,-0.3663l-5.41229,-4.8643h-1.95c-1.10457,0 -2,-0.8955 -2,-2l-0.00001,-5.18763c0,-1.10457 0.89543,-2 2,-2h1.94661l5.41569,-4.92559c0.354,-0.31804 1.0528,-0.74523 1.8034,-0.36734z"></path><path d="M16.1185,7.73078l0.2396,0.07161c1.767,0.52829 2.8919,2.29901 2.8919,4.19761c0,1.8987 -1.1249,3.6693 -2.8919,4.1976l-0.2396,0.0716c-0.5291,0.1582 -1.0863,-0.1425 -1.2445,-0.6716l-0.1432,-0.4791c-0.1582,-0.5291 0.1425,-1.0863 0.6716,-1.2445l0.2396,-0.0716c0.5332,-0.1594 1.108,-0.8143 1.108,-1.8024c0,-0.988 -0.5748,-1.6429 -1.108,-1.8024l-0.2396,-0.0716c-0.5291,-0.15818 -0.8298,-0.71538 -0.6716,-1.24452l0.1432,-0.47905c0.1582,-0.52914 0.7154,-0.82985 1.2445,-0.67165z"></path></g></g></svg>