<svg version="1.1" xmlns="http://www.w3.org/2000/svg" xmlns:xlink="http://www.w3.org/1999/xlink" width="800px" height="800px" viewBox="0,0,256,256"><g fill="#ffffff" fill-rule="nonzero" stroke="none" stroke-width="1" stroke-linecap="butt" stroke-linejoin="miter" stroke-miterlimit="10" stroke-dasharray="" stroke-dashoffset="0" font-family="none" font-weight="none" font-size="none" text-anchor="none" style="mix-blend-mode: normal"><g transform="translate(-1.33387,0.00044) scale(10.66667,10.66667)"><path d="M13,3.7446c0,-0.47146 -0.1272,-1.24439 -0.8343,-1.60036c-0.7506,-0.37789 -1.4494,0.0493 -1.8034,0.36734l-5.41569,4.92559h-1.94661c-1.10457,0 -2,0.89543 -2,2l0.00001,5.18763c0,1.1045 0.89543,2 2,2h1.95l5.41229,4.8643c0.3552,0.319 1.0537,0.744 1.8033,0.3663c0.7061,-0.3556 0.8344,-1.1268 0.8344,-1.5993z"></path><path d="M17.336,3.79605l-0.2408,-0.06719c-0.5319,-0.14844 -1.0835,0.16246 -1.232,0.69443l-0.1343,0.4816c-0.1485,0.53196 0.1624,1.08354 0.6944,1.23198l0.2408,0.06719c2.291,0.6393 4.086,2.94209 4.086,5.79604c0,2.8539 -1.795,5.1567 -4.086,5.796l-0.2408,0.0671c-0.532,0.1485 -0.8429,0.7001 -0.6944,1.232l0.1343,0.4816c0.1485,0.532 0.7001,0.8429 1.232,0.6945l0.2408,-0.0672c3.4597,-0.9654 5.9141,-4.3223 5.9141,-8.204c0,-3.88178 -2.4544,-7.23864 -5.9141,-8.20405z"></path><path d="M16.3581,7.80239l-0.2396,-0.07161c-0.5291,-0.1582 -1.0863,0.14251 -1.2445,0.67165l-0.1432,0.47905c-0.1582,0.52914 0.1425,1.08634 0.6716,1.24452l0.2396,0.0716c0.5332,0.1595 1.108,0.8144 1.108,1.8024c0,0.9881 -0.5748,1.643 -1.108,1.8024l-0.2396,0.0716c-0.5291,0.1582 -0.8298,0.7154 -0.6716,1.2445l0.1432,0.4791c0.1582,0.5291 0.7154,0.8298 1.2445,0.6716l0.2396,-0.0716c1.767,-0.5283 2.8919,-2.2989 2.8919,-4.1976c0,-1.8986 -1.1249,-3.66932 -2.8919,-4.19761z"></path></g></g></svg>