<svg version="1.1" xmlns="http://www.w3.org/2000/svg" xmlns:xlink="http://www.w3.org/1999/xlink" width="800px" height="800px" viewBox="0,0,256,256"><g fill="#ffffff" fill-rule="evenodd" stroke="none" stroke-width="1" stroke-linecap="butt" stroke-linejoin="miter" stroke-miterlimit="10" stroke-dasharray="" stroke-dashoffset="0" font-family="none" font-weight="none" font-size="none" text-anchor="none" style="mix-blend-mode: normal"><g transform="translate(40,0) scale(8,8)"><g id="Page-1"><g transform="translate(-107,-309)" id="Icon-Set-Filled"><path d="M118,333c3.866,0 7,-3.134 7,-7v-10c0,-3.866 -3.134,-7 -7,-7c-3.866,0 -7,3.134 -7,7v10c0,3.866 3.134,7 7,7zM129,328h-2c-0.911,4.007 -4.718,7 -9,7c-4.282,0 -8.089,-2.993 -9,-7h-2c0.883,4.799 5.063,8.51 10,8.955v2.045h-1c-0.552,0 -1,0.448 -1,1c0,0.553 0.448,1 1,1h4c0.552,0 1,-0.447 1,-1c0,-0.552 -0.448,-1 -1,-1h-1v-2.045c4.937,-0.445 9.117,-4.156 10,-8.955z" id="microphone"></path></g></g></g></g></svg>